<svg version="1.1" id="Layer_1" xmlns="http://www.w3.org/2000/svg" xmlns:xlink="http://www.w3.org/1999/xlink" x="0px" y="0px"
	 width="100%" viewBox="0 0 1080 1080" enable-background="new 0 0 1080 1080" xml:space="preserve">
<path fill="#FFFFFF" opacity="1.000000" stroke="none" 
	d="
M712.000000,1081.000000 
	C474.694000,1081.000000 237.887985,1081.000000 1.081984,1081.000000 
	C1.054650,1080.860718 1.003363,1080.721313 1.003362,1080.582031 
	C0.999989,720.790222 1.000000,360.998413 1.000000,1.103307 
	C360.889526,1.103307 720.779114,1.103307 1080.834351,1.103307 
	C1080.834351,360.999939 1080.834351,720.999939 1080.834351,1081.000000 
	C958.137268,1081.000000 835.318665,1081.000000 712.000000,1081.000000 
M844.028870,532.056335 
	C844.022522,495.703400 844.016113,459.350494 844.016724,422.060791 
	C844.014954,391.041351 844.013184,360.021881 844.597656,328.408081 
	C844.728516,326.596466 844.992554,324.783203 844.970093,322.973480 
	C844.672424,299.023804 844.331970,275.074615 844.010803,251.125198 
	C843.979553,248.793182 843.706909,246.413452 844.064819,244.137405 
	C844.900330,238.825043 842.541626,237.887283 837.671265,237.898361 
	C769.864563,238.052750 702.057373,238.002869 634.250305,238.002884 
	C504.134064,238.002899 374.017853,238.020370 243.901672,237.926102 
	C239.616486,237.923004 237.854034,238.635590 237.880783,243.560089 
	C238.102417,284.376373 238.015167,325.194336 238.010895,366.946655 
	C238.019562,424.635803 238.028229,482.324951 238.014923,540.948364 
	C238.028091,594.637512 238.041260,648.326721 238.023270,702.950684 
	C238.010437,748.430847 238.053741,793.911194 237.893021,839.390869 
	C237.877884,843.671265 238.834030,845.051025 243.375702,845.048340 
	C441.789276,844.930542 640.202942,844.931641 838.616516,845.043335 
	C843.074707,845.045837 844.183167,843.794800 844.166992,839.429932 
	C843.997192,793.617188 844.041748,747.803589 844.046143,701.055359 
	C844.035645,645.034485 844.025146,589.013550 844.028870,532.056335 
z"/>
<path fill="#D5D6D7" opacity="1.000000" stroke="none" 
	d="
M844.026978,701.990234 
	C844.041748,747.803589 843.997192,793.617188 844.166992,839.429932 
	C844.183167,843.794800 843.074707,845.045837 838.616516,845.043335 
	C640.202942,844.931641 441.789276,844.930542 243.375702,845.048340 
	C238.834030,845.051025 237.877884,843.671265 237.893021,839.390869 
	C238.053741,793.911194 238.010437,748.430847 238.501617,702.477417 
	C288.295258,702.002747 337.610596,701.980469 386.925812,702.038025 
	C391.049927,702.042786 395.176666,702.808838 399.295349,702.749207 
	C400.637634,702.729736 401.958130,701.207886 403.597290,700.579834 
	C407.835602,703.605713 407.483032,706.424561 404.897461,710.334656 
	C397.282440,721.850708 390.116547,733.664246 382.802246,745.378418 
	C379.229218,751.100830 375.717010,756.861145 371.749298,763.298767 
	C373.827789,763.046387 374.960205,762.969482 376.069183,762.765259 
	C404.210876,757.584045 432.331024,752.281006 460.512909,747.329285 
	C464.201477,746.681213 468.532501,746.955994 472.012207,748.269897 
	C513.240540,763.838257 554.754944,765.235229 596.701477,751.503967 
	C627.132874,741.542175 652.691223,724.098572 674.882507,700.985413 
	C677.258606,701.424438 679.206970,701.962036 681.155701,701.963562 
	C735.446106,702.005676 789.736572,701.993469 844.026978,701.990234 
z"/>
<path fill="#EEEFEF" opacity="1.000000" stroke="none" 
	d="
M238.021347,366.011780 
	C238.015167,325.194336 238.102417,284.376373 237.880783,243.560089 
	C237.854034,238.635590 239.616486,237.923004 243.901672,237.926102 
	C374.017853,238.020370 504.134064,238.002899 634.250305,238.002884 
	C702.057373,238.002869 769.864563,238.052750 837.671265,237.898361 
	C842.541626,237.887283 844.900330,238.825043 844.064819,244.137405 
	C843.706909,246.413452 843.979553,248.793182 844.010803,251.125198 
	C844.331970,275.074615 844.672424,299.023804 844.970093,322.973480 
	C844.992554,324.783203 844.728516,326.596466 843.834656,328.704468 
	C782.494629,329.000580 721.917542,329.000214 661.340515,329.000000 
	C637.875244,328.999908 614.409851,329.021210 590.944702,328.972809 
	C588.071472,328.966888 585.395020,328.832581 585.617798,332.987915 
	C571.947449,328.738708 558.700439,324.327789 545.334839,320.311157 
	C542.704468,319.520691 539.388489,319.544220 536.774597,320.387909 
	C501.190826,331.873718 465.681885,343.591125 430.125854,355.163391 
	C427.978882,355.862152 425.590546,355.819214 422.969116,356.099518 
	C422.080444,356.683594 421.537140,357.289551 420.680542,358.103333 
	C412.258301,360.909241 404.149353,363.507294 395.842773,365.808167 
	C392.721527,363.454437 390.729675,363.310699 390.654602,367.968018 
	C386.902832,369.187683 383.481659,370.220123 380.051514,370.863586 
	C381.428192,368.903656 382.813812,367.332764 383.978973,366.011780 
	C335.607574,366.011780 286.814453,366.011780 238.021347,366.011780 
z"/>
<path fill="#E6E7E7" opacity="1.000000" stroke="none" 
	d="
M238.016113,366.479218 
	C286.814453,366.011780 335.607574,366.011780 383.978973,366.011780 
	C382.813812,367.332764 381.428192,368.903656 379.799438,371.115601 
	C367.701111,375.701416 355.845917,379.646271 343.143921,383.872894 
	C379.421509,397.849457 414.473907,411.479675 449.623138,424.855408 
	C476.872040,435.224792 504.228455,445.312561 531.567932,455.442322 
	C538.109741,457.866150 543.972107,460.423340 551.739075,456.398071 
	C563.348328,450.381470 576.145996,446.667664 588.405640,441.890930 
	C592.648499,440.237762 596.794617,438.336060 601.337158,436.575500 
	C603.229248,435.828217 604.769165,435.053314 606.247314,434.250916 
	C606.185547,434.223450 606.241333,434.346527 606.635254,434.396851 
	C608.668152,433.870087 610.307190,433.292999 612.278320,432.822754 
	C613.756104,432.172729 614.901733,431.415833 616.440796,430.742218 
	C621.787598,428.638123 626.740967,426.450775 631.951172,424.332397 
	C632.849731,424.126343 633.491455,423.851318 634.529053,423.522583 
	C653.650391,416.076294 672.352356,408.623566 691.109558,401.312622 
	C703.315552,396.555115 715.600891,392.000977 727.860657,387.382324 
	C728.095398,387.293884 728.454041,387.534332 729.346130,387.792297 
	C730.480591,402.284454 731.631409,416.985474 732.399109,431.855316 
	C732.777039,437.825958 733.371338,443.659088 734.450256,449.401123 
	C734.648560,450.456421 736.812805,451.142303 739.142700,452.729919 
	C739.142700,445.657959 739.142700,439.871277 739.024597,433.657959 
	C739.152344,430.158600 739.398193,427.085907 740.045044,424.004211 
	C744.092896,423.663483 747.739014,423.052979 751.386597,423.043793 
	C782.260864,422.966217 813.135315,422.998383 844.009766,422.997559 
	C844.016113,459.350494 844.022522,495.703400 843.551392,532.527283 
	C809.140076,532.998840 775.206238,532.999329 741.272339,533.000000 
	C735.450317,533.000122 729.628357,532.999512 723.806335,533.000793 
	C720.859192,533.001404 718.249939,533.161804 719.500366,537.457947 
	C719.694824,538.125854 718.056396,539.327271 717.114990,539.941528 
	C712.952026,522.830566 707.092407,506.723022 698.853760,491.580688 
	C686.609192,469.075623 670.212158,450.017731 649.805847,434.517242 
	C648.029236,433.167694 644.891846,432.428070 642.784973,432.965912 
	C639.448669,433.817596 636.449219,435.988983 633.182373,437.666046 
	C634.137146,438.503387 635.044739,439.485413 636.122559,440.216461 
	C649.525391,449.307068 661.018738,460.451813 671.588257,472.659485 
	C682.550354,485.320587 691.374939,499.227631 696.897766,514.980835 
	C695.932739,515.337646 694.917725,515.580688 694.866760,515.954956 
	C694.218201,520.719360 690.719727,519.925354 687.473022,520.040466 
	C679.455627,520.324585 671.445007,520.802368 663.174927,520.991760 
	C650.588196,494.593231 632.153320,473.886688 607.158142,459.219238 
	C600.594299,455.367493 594.177246,451.420563 585.607483,455.314606 
	C572.367798,461.330688 558.676331,466.357758 545.125916,471.675507 
	C543.923950,472.147217 542.208008,472.048767 540.971741,471.579926 
	C527.964783,466.647491 515.006531,461.586517 502.035583,456.559235 
	C494.068634,453.471405 486.618500,450.468231 477.862244,455.964874 
	C467.813934,462.272614 457.744110,468.195404 449.105835,476.576080 
	C438.386230,486.976044 429.472443,498.631348 421.109009,511.155396 
	C408.442902,511.124725 396.284943,511.152832 384.174194,510.770020 
	C398.018433,479.242096 420.256836,455.273590 448.728882,436.150574 
	C444.325562,434.471588 441.058838,433.438202 437.986023,431.992584 
	C435.114807,430.641846 432.914551,430.823273 430.278381,432.838745 
	C414.143799,445.174255 400.191772,459.544250 388.674347,476.290924 
	C375.300690,495.736603 366.518097,517.161377 360.484680,539.994385 
	C319.358398,540.000854 278.697662,540.007446 238.036896,540.014099 
	C238.028229,482.324951 238.019562,424.635803 238.016113,366.479218 
z"/>
<path fill="#DDDFDF" opacity="1.000000" stroke="none" 
	d="
M717.265625,540.281982 
	C718.056396,539.327271 719.694824,538.125854 719.500366,537.457947 
	C718.249939,533.161804 720.859192,533.001404 723.806335,533.000793 
	C729.628357,532.999512 735.450317,533.000122 741.272339,533.000000 
	C775.206238,532.999329 809.140076,532.998840 843.544312,532.995483 
	C844.025146,589.013550 844.035645,645.034485 844.036560,701.522827 
	C789.736572,701.993469 735.446106,702.005676 681.155701,701.963562 
	C679.206970,701.962036 677.258606,701.424438 675.077759,700.692749 
	C707.616150,662.409790 723.379700,618.616699 720.582886,568.483459 
	C720.056580,559.050598 718.400391,549.680847 717.265625,540.281982 
z"/>
<path fill="#DDDEDF" opacity="1.000000" stroke="none" 
	d="
M238.025909,540.481201 
	C278.697662,540.007446 319.358398,540.000854 360.518738,540.390991 
	C356.432434,563.174683 355.653259,585.650574 359.436737,608.234192 
	C362.116455,624.229492 367.121582,639.454895 373.363495,654.439941 
	C380.548157,671.688110 390.835419,686.677795 403.288574,700.373169 
	C401.958130,701.207886 400.637634,702.729736 399.295349,702.749207 
	C395.176666,702.808838 391.049927,702.042786 386.925812,702.038025 
	C337.610596,701.980469 288.295258,702.002747 238.517212,702.010010 
	C238.041260,648.326721 238.028091,594.637512 238.025909,540.481201 
z"/>
<path fill="#EAEBEB" opacity="1.000000" stroke="none" 
	d="
M844.013245,422.529175 
	C813.135315,422.998383 782.260864,422.966217 751.386597,423.043793 
	C747.739014,423.052979 744.092896,423.663483 739.933655,423.616852 
	C739.542908,422.180511 739.664551,421.122559 740.130249,419.803284 
	C740.636780,407.915985 740.821350,396.290192 740.894897,384.663635 
	C740.898499,384.096466 739.929565,383.523102 739.058472,382.806030 
	C724.797974,378.236420 710.892517,373.813416 696.648682,369.204315 
	C676.238281,362.524261 656.152588,356.072540 636.098694,349.523224 
	C619.379578,344.063019 602.697815,338.488312 585.999512,332.964294 
	C585.395020,328.832581 588.071472,328.966888 590.944702,328.972809 
	C614.409851,329.021210 637.875244,328.999908 661.340515,329.000000 
	C721.917542,329.000214 782.494629,329.000580 843.541504,329.001648 
	C844.013184,360.021881 844.014954,391.041351 844.013245,422.529175 
z"/>
<path fill="#972C28" opacity="1.000000" stroke="none" 
	d="
M403.597290,700.579834 
	C390.835419,686.677795 380.548157,671.688110 373.363495,654.439941 
	C367.121582,639.454895 362.116455,624.229492 359.436737,608.234192 
	C355.653259,585.650574 356.432434,563.174683 360.984253,540.391113 
	C366.518097,517.161377 375.300690,495.736603 388.674347,476.290924 
	C400.191772,459.544250 414.143799,445.174255 430.278381,432.838745 
	C432.914551,430.823273 435.114807,430.641846 437.986023,431.992584 
	C441.058838,433.438202 444.325562,434.471588 448.728882,436.150574 
	C420.256836,455.273590 398.018433,479.242096 383.968994,510.966003 
	C375.363190,529.384521 370.814453,548.195923 369.428802,567.748047 
	C367.233032,598.730652 372.579132,628.292786 386.846222,656.438477 
	C395.639954,674.587585 407.594910,690.054504 421.662231,704.126770 
	C412.623535,718.674988 403.794098,732.886475 394.538147,747.784363 
	C396.413330,747.554443 397.370239,747.486633 398.308136,747.314941 
	C419.424774,743.449036 440.525635,739.493225 461.671997,735.797791 
	C464.256409,735.346130 467.362488,735.631836 469.755341,736.666443 
	C511.309082,754.631958 553.588013,756.927795 596.341980,741.887878 
	C635.143616,728.238342 665.212524,703.490295 686.682068,667.924622 
	C697.671021,649.703674 704.612061,630.320923 708.305969,609.722351 
	C711.571289,591.513916 712.320435,573.141357 708.728088,555.059570 
	C706.026672,541.462036 701.184875,528.289734 697.295898,514.928101 
	C691.374939,499.227631 682.550354,485.320587 671.588257,472.659485 
	C661.018738,460.451813 649.525391,449.307068 636.122559,440.216461 
	C635.044739,439.485413 634.137146,438.503387 633.182373,437.666046 
	C636.449219,435.988983 639.448669,433.817596 642.784973,432.965912 
	C644.891846,432.428070 648.029236,433.167694 649.805847,434.517242 
	C670.212158,450.017731 686.609192,469.075623 698.853760,491.580688 
	C707.092407,506.723022 712.952026,522.830566 717.115051,539.941528 
	C718.400391,549.680847 720.056580,559.050598 720.582886,568.483459 
	C723.379700,618.616699 707.616150,662.409790 674.650269,700.541504 
	C652.691223,724.098572 627.132874,741.542175 596.701477,751.503967 
	C554.754944,765.235229 513.240540,763.838257 472.012207,748.269897 
	C468.532501,746.955994 464.201477,746.681213 460.512909,747.329285 
	C432.331024,752.281006 404.210876,757.584045 376.069183,762.765259 
	C374.960205,762.969482 373.827789,763.046387 371.749298,763.298767 
	C375.717010,756.861145 379.229218,751.100830 382.802246,745.378418 
	C390.116547,733.664246 397.282440,721.850708 404.897461,710.334656 
	C407.483032,706.424561 407.835602,703.605713 403.597290,700.579834 
z"/>
<path fill="#962624" opacity="1.000000" stroke="none" 
	d="
M585.617798,332.987915 
	C602.697815,338.488312 619.379578,344.063019 636.098694,349.523224 
	C656.152588,356.072540 676.238281,362.524261 696.712036,369.536102 
	C700.889893,372.087677 704.665955,374.121399 709.068237,376.492371 
	C707.563049,378.198303 706.291504,380.489868 704.346497,381.690552 
	C697.426636,385.962280 690.330261,389.958405 683.204163,393.883392 
	C668.357422,402.060699 653.404419,410.046478 638.621399,418.336334 
	C636.738098,419.392456 635.610718,421.796600 634.133179,423.576294 
	C633.491455,423.851318 632.849731,424.126343 631.532043,424.259155 
	C624.288391,422.604645 620.210327,426.727844 616.047363,430.658936 
	C614.901733,431.415833 613.756104,432.172729 612.206909,432.487457 
	C608.860840,430.181610 606.918640,430.735535 606.241333,434.346527 
	C606.241333,434.346527 606.185547,434.223450 605.863159,434.162415 
	C604.022156,434.916870 602.503540,435.732361 600.984863,436.547852 
	C596.794617,438.336060 592.648499,440.237762 588.405640,441.890930 
	C576.145996,446.667664 563.348328,450.381470 551.739075,456.398071 
	C543.972107,460.423340 538.109741,457.866150 531.567932,455.442322 
	C504.228455,445.312561 476.872040,435.224792 449.623138,424.855408 
	C414.473907,411.479675 379.421509,397.849457 343.143921,383.872894 
	C355.845917,379.646271 367.701111,375.701416 379.808350,371.504578 
	C383.481659,370.220123 386.902832,369.187683 390.998169,367.992340 
	C393.128357,367.254730 394.584412,366.680054 396.040436,366.105347 
	C404.149353,363.507294 412.258301,360.909241 421.016357,358.145447 
	C422.215179,357.360291 422.764862,356.740845 423.314514,356.121399 
	C425.590546,355.819214 427.978882,355.862152 430.125854,355.163391 
	C465.681885,343.591125 501.190826,331.873718 536.774597,320.387909 
	C539.388489,319.544220 542.704468,319.520691 545.334839,320.311157 
	C558.700439,324.327789 571.947449,328.738708 585.617798,332.987915 
z"/>
<path fill="#E6E7E7" opacity="1.000000" stroke="none" 
	d="
M395.842773,365.808197 
	C394.584412,366.680054 393.128357,367.254730 391.328766,367.805115 
	C390.729675,363.310699 392.721527,363.454437 395.842773,365.808197 
z"/>
<path fill="#E6E7E7" opacity="1.000000" stroke="none" 
	d="
M422.969116,356.099548 
	C422.764862,356.740845 422.215179,357.360291 421.329681,357.937622 
	C421.537140,357.289551 422.080444,356.683594 422.969116,356.099548 
z"/>
<path fill="#030303" opacity="1.000000" stroke="none" 
	d="
M421.617157,511.214172 
	C429.472443,498.631348 438.386230,486.976044 449.105835,476.576080 
	C457.744110,468.195404 467.813934,462.272614 477.862244,455.964874 
	C486.618500,450.468231 494.068634,453.471405 502.035583,456.559235 
	C515.006531,461.586517 527.964783,466.647491 540.971741,471.579926 
	C542.208008,472.048767 543.923950,472.147217 545.125916,471.675507 
	C558.676331,466.357758 572.367798,461.330688 585.607483,455.314606 
	C594.177246,451.420563 600.594299,455.367493 607.158142,459.219238 
	C632.153320,473.886688 650.588196,494.593231 663.175354,521.384155 
	C673.208740,544.683777 676.822510,568.264465 674.188232,593.244019 
	C599.929382,593.244019 526.263489,593.244019 451.003204,593.244019 
	C453.593048,601.692139 455.938202,609.342163 458.265869,617.323059 
	C458.673126,618.392090 459.097931,619.130310 459.494354,620.204895 
	C465.453644,629.677246 470.529297,639.608887 477.642975,647.762390 
	C488.285767,659.960938 501.848602,668.420959 518.225830,672.400024 
	C531.979004,676.078979 545.483093,676.795410 559.391479,673.193604 
	C560.156494,673.028809 560.573059,672.832031 561.314087,672.690674 
	C562.400085,672.409973 563.161682,672.073730 564.270508,671.776489 
	C568.742981,670.128601 572.868286,668.441650 577.323669,666.764526 
	C578.354248,666.283264 579.054810,665.792175 580.087524,665.316895 
	C591.703918,659.612366 601.502197,652.044617 609.140625,641.887207 
	C610.842957,639.623474 612.341187,639.216858 614.969421,640.503845 
	C619.565613,642.754272 624.396179,644.526062 629.333862,646.757690 
	C630.361084,647.276978 631.182800,647.536987 632.271118,648.056396 
	C639.223206,651.342346 645.908813,654.368774 652.906799,657.536621 
	C649.953918,661.991455 647.416626,665.819397 644.610168,669.760498 
	C619.508911,699.583679 587.801819,716.242981 549.217529,719.326538 
	C510.889282,722.389526 477.718933,709.973633 449.803589,683.970642 
	C441.482452,676.219543 434.791748,666.718140 427.287903,657.657959 
	C421.678986,645.536377 416.136139,633.775513 410.644745,621.691528 
	C410.341187,620.611877 409.986206,619.855347 409.665955,618.734619 
	C408.672211,613.453369 407.501801,608.560974 406.640808,603.614746 
	C403.550812,585.863708 403.411346,567.977112 407.907043,550.594543 
	C411.375732,537.182922 416.968689,524.320679 421.617157,511.214172 
M456.174652,553.692261 
	C457.977173,554.133057 459.778351,554.951233 461.582428,554.957581 
	C485.708649,555.042847 509.835266,555.014648 533.961792,555.014648 
	C562.580872,555.014648 591.200134,555.052795 619.818604,554.918823 
	C621.517883,554.910889 623.210815,553.521240 624.974548,552.018616 
	C616.923096,518.335876 582.062317,488.911560 547.778442,486.934265 
	C512.383728,484.892883 484.888916,498.831116 466.017181,528.707092 
	C461.432526,535.965027 459.307526,544.776672 456.174652,553.692261 
z"/>
<path fill="#DDDEDE" opacity="1.000000" stroke="none" 
	d="
M517.941772,672.158264 
	C501.848602,668.420959 488.285767,659.960938 477.642975,647.762390 
	C470.529297,639.608887 465.453644,629.677246 459.621643,619.839294 
	C459.279327,618.422241 458.781372,617.707214 458.283386,616.992188 
	C455.938202,609.342163 453.593048,601.692139 451.003204,593.244019 
	C526.263489,593.244019 599.929382,593.244019 674.188232,593.244019 
	C676.822510,568.264465 673.208740,544.683777 663.432129,521.594727 
	C671.445007,520.802368 679.455627,520.324585 687.473022,520.040466 
	C690.719727,519.925354 694.218201,520.719360 694.866760,515.954956 
	C694.917725,515.580688 695.932739,515.337646 696.897766,514.980835 
	C701.184875,528.289734 706.026672,541.462036 708.728088,555.059570 
	C712.320435,573.141357 711.571289,591.513916 708.305969,609.722351 
	C704.612061,630.320923 697.671021,649.703674 686.286865,667.844482 
	C683.975586,667.031189 682.296814,665.242126 680.600037,665.224854 
	C672.203186,665.139526 663.790039,665.339966 655.410095,665.872009 
	C653.378296,666.000977 651.510315,667.919128 649.454224,668.728210 
	C648.029236,669.288940 646.411072,669.358398 644.879272,669.647339 
	C647.416626,665.819397 649.953918,661.991455 652.906799,657.536621 
	C645.908813,654.368774 639.223206,651.342346 632.170410,647.690552 
	C630.911682,646.876282 630.020081,646.687378 629.128479,646.498413 
	C624.396179,644.526062 619.565613,642.754272 614.969421,640.503845 
	C612.341187,639.216858 610.842957,639.623474 609.140625,641.887207 
	C601.502197,652.044617 591.703918,659.612366 579.719849,665.244385 
	C578.344604,665.688965 577.669128,666.221863 576.993652,666.754761 
	C572.868286,668.441650 568.742981,670.128601 563.930908,671.571411 
	C562.492737,671.763367 561.741211,672.199341 560.989685,672.635254 
	C560.573059,672.832031 560.156494,673.028809 559.387085,672.803772 
	C561.466980,670.158752 563.899780,667.935547 566.594849,665.472656 
	C548.402954,665.472656 530.479980,665.472656 512.557007,665.472656 
	C512.448425,665.893250 512.339783,666.313843 512.231140,666.734497 
	C516.109009,667.813293 519.986877,668.892090 523.864685,669.970947 
	C523.771118,670.454407 523.677551,670.937927 523.583923,671.421387 
	C521.703247,671.667053 519.822510,671.912659 517.941772,672.158264 
z"/>
<path fill="#DFDFE0" opacity="1.000000" stroke="none" 
	d="
M410.593323,622.014648 
	C416.136139,633.775513 421.678986,645.536377 426.887024,657.647339 
	C423.687469,656.665466 420.805725,654.168945 417.960968,654.210388 
	C407.560394,654.361816 396.961945,652.211548 386.782410,656.084106 
	C372.579132,628.292786 367.233032,598.730652 369.428802,567.748047 
	C370.814453,548.195923 375.363190,529.384521 383.921814,511.376923 
	C396.284943,511.152832 408.442902,511.124725 421.109009,511.155396 
	C416.968689,524.320679 411.375732,537.182922 407.907043,550.594543 
	C403.411346,567.977112 403.550812,585.863708 406.640808,603.614746 
	C407.501801,608.560974 408.672211,613.453369 409.491211,619.079468 
	C409.718964,620.530579 410.156128,621.272644 410.593323,622.014648 
z"/>
<path fill="#972C28" opacity="1.000000" stroke="none" 
	d="
M634.529053,423.522583 
	C635.610718,421.796600 636.738098,419.392456 638.621399,418.336334 
	C653.404419,410.046478 668.357422,402.060699 683.204163,393.883392 
	C690.330261,389.958405 697.426636,385.962280 704.346497,381.690552 
	C706.291504,380.489868 707.563049,378.198303 709.068237,376.492371 
	C704.665955,374.121399 700.889893,372.087677 697.050476,369.722168 
	C710.892517,373.813416 724.797974,378.236420 739.077332,383.277588 
	C739.472412,388.370941 739.474487,392.846313 739.518799,397.321320 
	C739.593933,404.902557 739.695740,412.483521 739.786255,420.064606 
	C739.664551,421.122559 739.542908,422.180511 739.532593,423.625854 
	C739.398193,427.085907 739.152344,430.158600 738.697021,433.495056 
	C736.585754,433.068054 734.683960,432.377258 732.782227,431.686462 
	C731.631409,416.985474 730.480591,402.284454 729.346130,387.792297 
	C728.454041,387.534332 728.095398,387.293884 727.860657,387.382324 
	C715.600891,392.000977 703.315552,396.555115 691.109558,401.312622 
	C672.352356,408.623566 653.650391,416.076294 634.529053,423.522583 
z"/>
<path fill="#D5D6D7" opacity="1.000000" stroke="none" 
	d="
M732.399109,431.855316 
	C734.683960,432.377258 736.585754,433.068054 738.815063,433.921722 
	C739.142700,439.871277 739.142700,445.657959 739.142700,452.729919 
	C736.812805,451.142303 734.648560,450.456421 734.450256,449.401123 
	C733.371338,443.659088 732.777039,437.825958 732.399109,431.855316 
z"/>
<path fill="#972C28" opacity="1.000000" stroke="none" 
	d="
M616.440796,430.742218 
	C620.210327,426.727844 624.288391,422.604645 631.275269,424.190186 
	C626.740967,426.450775 621.787598,428.638123 616.440796,430.742218 
z"/>
<path fill="#972C28" opacity="1.000000" stroke="none" 
	d="
M606.635254,434.396851 
	C606.918640,430.735535 608.860840,430.181610 611.874756,432.380554 
	C610.307190,433.292999 608.668152,433.870087 606.635254,434.396851 
z"/>
<path fill="#972C28" opacity="1.000000" stroke="none" 
	d="
M601.337158,436.575500 
	C602.503540,435.732361 604.022156,434.916870 605.924927,434.189911 
	C604.769165,435.053314 603.229248,435.828217 601.337158,436.575500 
z"/>
<path fill="#D5D6D7" opacity="1.000000" stroke="none" 
	d="
M740.130249,419.803284 
	C739.695740,412.483521 739.593933,404.902557 739.518799,397.321320 
	C739.474487,392.846313 739.472412,388.370941 739.432373,383.424194 
	C739.929565,383.523102 740.898499,384.096466 740.894897,384.663635 
	C740.821350,396.290192 740.636780,407.915985 740.130249,419.803284 
z"/>
<path fill="#D8D9DA" opacity="1.000000" stroke="none" 
	d="
M386.846222,656.438477 
	C396.961945,652.211548 407.560394,654.361816 417.960968,654.210388 
	C420.805725,654.168945 423.687469,656.665466 426.953125,658.008057 
	C434.791748,666.718140 441.482452,676.219543 449.803589,683.970642 
	C477.718933,709.973633 510.889282,722.389526 549.217529,719.326538 
	C587.801819,716.242981 619.508911,699.583679 644.610107,669.760498 
	C646.411072,669.358398 648.029236,669.288940 649.454224,668.728210 
	C651.510315,667.919128 653.378296,666.000977 655.410095,665.872009 
	C663.790039,665.339966 672.203186,665.139526 680.600037,665.224854 
	C682.296814,665.242126 683.975586,667.031189 686.057861,668.083618 
	C665.212524,703.490295 635.143616,728.238342 596.341980,741.887878 
	C553.588013,756.927795 511.309082,754.631958 469.755341,736.666443 
	C467.362488,735.631836 464.256409,735.346130 461.671997,735.797791 
	C440.525635,739.493225 419.424774,743.449036 398.308136,747.314941 
	C397.370239,747.486633 396.413330,747.554443 394.538147,747.784363 
	C403.794098,732.886475 412.623535,718.674988 421.662231,704.126770 
	C407.594910,690.054504 395.639954,674.587585 386.846222,656.438477 
z"/>
<path fill="#DFE0E1" opacity="1.000000" stroke="none" 
	d="
M456.051514,552.873901 
	C459.307526,544.776672 461.432526,535.965027 466.017181,528.707092 
	C484.888916,498.831116 512.383728,484.892883 547.778442,486.934265 
	C582.062317,488.911560 616.923096,518.335876 624.478088,552.387512 
	C622.149231,552.767273 620.316772,552.786743 618.484375,552.787781 
	C564.340088,552.817566 510.195770,552.845581 456.051514,552.873901 
z"/>
<path fill="#D8D9DA" opacity="1.000000" stroke="none" 
	d="
M518.225830,672.400024 
	C519.822510,671.912659 521.703247,671.667053 523.583923,671.421387 
	C523.677551,670.937927 523.771118,670.454407 523.864685,669.970947 
	C519.986877,668.892090 516.109009,667.813293 512.231140,666.734497 
	C512.339783,666.313843 512.448425,665.893250 512.557007,665.472656 
	C530.479980,665.472656 548.402954,665.472656 566.594849,665.472656 
	C563.899780,667.935547 561.466980,670.158752 559.038574,672.771790 
	C545.483093,676.795410 531.979004,676.078979 518.225830,672.400024 
z"/>
<path fill="#121212" opacity="1.000000" stroke="none" 
	d="
M456.113068,553.283081 
	C510.195770,552.845581 564.340088,552.817566 618.484375,552.787781 
	C620.316772,552.786743 622.149231,552.767273 624.444153,552.765503 
	C623.210815,553.521240 621.517883,554.910889 619.818604,554.918823 
	C591.200134,555.052795 562.580872,555.014648 533.961792,555.014648 
	C509.835266,555.014648 485.708649,555.042847 461.582428,554.957581 
	C459.778351,554.951233 457.977173,554.133057 456.113068,553.283081 
z"/>
<path fill="#D8D9DA" opacity="1.000000" stroke="none" 
	d="
M458.265869,617.323059 
	C458.781372,617.707214 459.279327,618.422241 459.650024,619.502869 
	C459.097931,619.130310 458.673126,618.392090 458.265869,617.323059 
z"/>
<path fill="#D8D9DA" opacity="1.000000" stroke="none" 
	d="
M410.644745,621.691528 
	C410.156128,621.272644 409.718964,620.530579 409.456482,619.443726 
	C409.986206,619.855347 410.341187,620.611877 410.644745,621.691528 
z"/>
<path fill="#D8D9DA" opacity="1.000000" stroke="none" 
	d="
M629.333862,646.757751 
	C630.020081,646.687378 630.911682,646.876282 631.903931,647.431091 
	C631.182800,647.536987 630.361084,647.276978 629.333862,646.757751 
z"/>
<path fill="#D8D9DA" opacity="1.000000" stroke="none" 
	d="
M577.323730,666.764526 
	C577.669128,666.221863 578.344604,665.688965 579.387695,665.228577 
	C579.054810,665.792175 578.354248,666.283264 577.323730,666.764526 
z"/>
<path fill="#D8D9DA" opacity="1.000000" stroke="none" 
	d="
M561.314087,672.690735 
	C561.741211,672.199341 562.492737,671.763367 563.583740,671.532471 
	C563.161682,672.073730 562.400085,672.409973 561.314087,672.690735 
z"/>
</svg>