<?xml version="1.0" encoding="UTF-8"?>
<svg version="1.1" xmlns="http://www.w3.org/2000/svg" width="675" height="129">
<path d="M0 0 C1.7015625 0.804375 1.7015625 0.804375 3.4375 1.625 C8.13630325 3.43857319 11.46685798 3.11742339 16.08984375 1.078125 C19.5054263 -0.38655363 21.83230966 -1.29554895 25.515625 -0.36328125 C36.41881781 4.67024795 42.67187175 13.00229708 47 24 C48.96263105 30.35820105 48.96999176 34.2100577 48 41 C26.88 41 5.76 41 -16 41 C-10.91583437 52.54736354 -10.91583437 52.54736354 -0.9765625 59.04296875 C6.49685204 61.44583825 14.34023097 61.18311819 21.5 57.9375 C24.81620425 56.07614665 26.6387754 54.31618223 28.75 51.1875 C30.0859375 49.3828125 30.0859375 49.3828125 32 48 C36.72061746 47.39533664 41.26770518 47.59159647 46 48 C44.91236841 56.71355421 39.94539235 62.9189544 33.28125 68.4296875 C23.3182171 75.28780261 12.25473065 77.60833316 0.34765625 75.5390625 C-10.75683482 72.55681371 -19.7117202 66.39589035 -25.50390625 56.40625 C-30.79857045 46.1487809 -31.78204152 34.7888254 -29.19921875 23.5 C-25.2913217 13.1863748 -17.92670123 5.19896178 -8.28125 -0.0703125 C-5.0485913 -1.38773163 -3.25224456 -1.22862572 0 0 Z M-12.72265625 20.9375 C-14.36816018 23.32601622 -14.36816018 23.32601622 -15 28 C1.17 28 17.34 28 34 28 C31.50580322 20.51740966 28.01747785 15.20935314 20.875 11.5 C7.79295595 6.53016044 -3.94782476 10.69675548 -12.72265625 20.9375 Z " fill="#000000" transform="translate(48,41)"/>
<path d="M0 0 C1.03739822 0.37709106 2.07479645 0.75418213 3.14363098 1.1427002 C4.24696274 1.55000366 5.35029449 1.95730713 6.48706055 2.37695312 C7.63039352 2.79489136 8.7737265 3.21282959 9.95170593 3.64343262 C12.36064725 4.52525176 14.76865433 5.40962672 17.17578125 6.29638672 C20.87560417 7.65887515 24.57852002 9.01267404 28.28198242 10.36523438 C30.62136176 11.22279834 32.9605609 12.08085408 35.29956055 12.93945312 C36.96973991 13.55040833 36.96973991 13.55040833 38.67366028 14.17370605 C39.6952977 14.55079712 40.71693512 14.92788818 41.76953125 15.31640625 C42.67298782 15.64870239 43.5764444 15.98099854 44.50727844 16.32336426 C46.5612793 17.15820312 46.5612793 17.15820312 47.5612793 18.15820312 C47.64779541 19.57390436 47.66832834 20.99379813 47.65893555 22.41210938 C47.65410156 23.69311523 47.65410156 23.69311523 47.64916992 25 C47.63660156 26.34674805 47.63660156 26.34674805 47.6237793 27.72070312 C47.61926758 28.62240234 47.61475586 29.52410156 47.61010742 30.453125 C47.59828154 32.68821626 47.5818015 34.92317749 47.5612793 37.15820312 C45.5612793 36.15820312 45.5612793 36.15820312 44.4909668 33.28710938 C44.14291992 32.11019531 43.79487305 30.93328125 43.4362793 29.72070312 C43.08307617 28.54636719 42.72987305 27.37203125 42.3659668 26.16210938 C41.5612793 23.15820313 41.5612793 23.15820313 41.5612793 21.15820312 C40.62155273 21.53589844 39.68182617 21.91359375 38.71362305 22.30273438 C29.0094994 26.16020731 19.22648899 29.80218436 9.40213013 33.34066772 C8.01313108 33.84225466 6.62531753 34.34713726 5.23873901 34.8553772 C3.26099723 35.57911615 1.27907913 36.29005462 -0.7043457 36.99804688 C-1.85708984 37.4143335 -3.00983398 37.83062012 -4.19750977 38.25952148 C-11.41106543 40.25960422 -16.52637247 38.33740986 -23.2980957 35.79882812 C-24.24251526 35.4531781 -25.18693481 35.10752808 -26.15997314 34.75140381 C-29.17295609 33.64600314 -32.18074855 32.5271572 -35.1887207 31.40820312 C-37.19621993 30.67037104 -39.20402964 29.93338313 -41.2121582 29.19726562 C-50.00285263 25.964575 -58.7571901 22.67530621 -67.4387207 19.15820312 C-66.01125565 16.30327302 -64.34121729 16.17772236 -61.37158203 15.0793457 C-60.28988235 14.67585403 -59.20818268 14.27236237 -58.09370422 13.85664368 C-56.91462997 13.42635361 -55.73555573 12.99606354 -54.52075195 12.55273438 C-53.31561447 12.1092717 -52.11047699 11.66580902 -50.86882019 11.20890808 C-48.31251109 10.26994113 -45.75410627 9.33695768 -43.19433594 8.4074707 C-39.92171133 7.21809812 -36.65659607 6.00943398 -33.3930254 4.79547596 C-30.2735522 3.63933954 -27.14676409 2.50357099 -24.02075195 1.36523438 C-22.85179886 0.92887161 -21.68284576 0.49250885 -20.47846985 0.04292297 C-18.83227913 -0.54812981 -18.83227913 -0.54812981 -17.15283203 -1.15112305 C-15.7117382 -1.67835213 -15.7117382 -1.67835213 -14.24153137 -2.2162323 C-9.14889783 -3.35286674 -4.78469503 -1.75212165 0 0 Z " fill="#A20109" transform="translate(67.438720703125,2.841796875)"/>
<path d="M0 0 C0.33 0.99 0.66 1.98 1 3 C0.49210937 3.35191406 -0.01578125 3.70382813 -0.5390625 4.06640625 C-11.47373027 11.90906122 -17.96786318 21.84278726 -20.40625 35.23046875 C-21.96374821 46.36304121 -19.63629252 58.269242 -13.21875 67.5859375 C-10.26796992 71.42912441 -10.26796992 71.42912441 -7 75 C-7.368274 79.78756196 -8.25002755 83.05438736 -11 87 C-10.35933594 86.7834375 -9.71867187 86.566875 -9.05859375 86.34375 C-1.91992839 84.04575936 3.48068354 83.1172622 10.75 85.4375 C22.88229396 89.28611289 34.95452323 88.32233446 46.625 83.25390625 C58.90442942 76.77085223 66.57590599 66.61298789 70.78515625 53.56640625 C73.72601205 41.70560372 71.46300011 29.75616602 66 19 C61.78518996 12.20597785 56.10624704 7.08161601 50 2 C53 0 53 0 54.94921875 0.1953125 C63.93159525 3.71982594 69.60751306 13.54077979 73.2890625 21.94140625 C78.45894508 35.60998071 78.32850467 48.98198812 72.96875 62.625 C66.37055313 76.89137162 56.12900378 85.2617368 41.76171875 91.0546875 C36.54250312 92.84117998 31.55727131 93.25612749 26.0625 93.3125 C25.31178223 93.32047607 24.56106445 93.32845215 23.78759766 93.33666992 C18.76179991 93.28401871 14.66431272 92.47264945 9.875 90.8125 C1.94186723 88.20772714 -4.18385176 89.82232171 -12 92 C-13.6450969 92.39888289 -15.29076825 92.79542101 -16.9375 93.1875 C-18.4534375 93.5896875 -18.4534375 93.5896875 -20 94 C-19.32599282 90.08885974 -17.45743967 87.12880818 -15.4375 83.75 C-14.79683594 82.67234375 -14.15617187 81.5946875 -13.49609375 80.484375 C-13.00238281 79.66453125 -12.50867187 78.8446875 -12 78 C-12.53109375 77.31035156 -13.0621875 76.62070313 -13.609375 75.91015625 C-22.22415038 64.44998973 -27.46128725 52.65853774 -26 38 C-23.81832142 23.51229067 -18.57272427 11.57105542 -7.42578125 1.7265625 C-4.66257634 -0.24016305 -3.31435435 -0.37878335 0 0 Z " fill="#A2010A" transform="translate(31,35)"/>
<path d="M0 0 C0.639375 0.495 1.27875 0.99 1.9375 1.5 C2.2675 0.51 2.5975 -0.48 2.9375 -1.5 C5.9075 -1.5 8.8775 -1.5 11.9375 -1.5 C12.01198116 3.78357911 12.06625795 9.06684863 12.10229492 14.35083008 C12.11732716 16.14613167 12.13775857 17.94139688 12.16381836 19.73657227 C12.20044786 22.32577526 12.2172821 24.91449028 12.23046875 27.50390625 C12.24595261 28.29898087 12.26143646 29.09405548 12.27738953 29.91322327 C12.27896233 35.19025141 11.40320184 38.81175701 8.9375 43.5 C3.99330017 48.13518734 -1.37033352 47.77948719 -7.8203125 47.71484375 C-12.07722117 47.43275944 -14.45678627 46.77316735 -18.0625 44.5 C-20.0625 42.125 -20.0625 42.125 -21.0625 39.5 C-20.75 36.6875 -20.75 36.6875 -20.0625 34.5 C-18.45732903 34.58733576 -16.85328338 34.69552224 -15.25 34.8125 C-13.91001953 34.89951172 -13.91001953 34.89951172 -12.54296875 34.98828125 C-10.0625 35.5 -10.0625 35.5 -8.53125 37.0625 C-7.13529874 38.75257274 -7.13529874 38.75257274 -4.80078125 38.57421875 C-3.60001953 38.38279297 -3.60001953 38.38279297 -2.375 38.1875 C-1.56675781 38.06761719 -0.75851562 37.94773438 0.07421875 37.82421875 C0.68910156 37.71722656 1.30398438 37.61023438 1.9375 37.5 C1.6075 35.19 1.2775 32.88 0.9375 30.5 C0.463125 30.995 -0.01125 31.49 -0.5 32 C-4.29646096 34.22231861 -7.76293735 34.06248759 -12.0625 33.5 C-16.21508823 31.74668497 -18.5357156 29.1999343 -21.0625 25.5 C-23.0855037 19.2166309 -23.14498942 11.96677209 -20.25 6 C-15.94767142 -1.78045628 -8.01763329 -3.92700406 0 0 Z M-10.0625 7.5 C-12.40101448 10.54006883 -12.41232697 13.77022859 -12.328125 17.53125 C-11.88973317 20.78050709 -10.35624037 23.20625963 -8.0625 25.5 C-5.18943772 26.00095023 -5.18943772 26.00095023 -2.0625 25.5 C0.72918197 23.29604055 1.77718239 21.61501799 2.28515625 18.08203125 C2.45178786 13.17726611 2.40347196 10.22425352 -1.0625 6.5 C-4.70554524 5.19224017 -6.8993972 5.20947728 -10.0625 7.5 Z " fill="#000000" transform="translate(550.0625,33.5)"/>
<path d="M0 0 C11.88 0 23.76 0 36 0 C36 2.64 36 5.28 36 8 C27.75 8 19.5 8 11 8 C11 11.3 11 14.6 11 18 C18.59 18 26.18 18 34 18 C34 20.97 34 23.94 34 27 C26.41 27 18.82 27 11 27 C11 30.63 11 34.26 11 38 C19.58 38 28.16 38 37 38 C37 40.97 37 43.94 37 47 C24.79 47 12.58 47 0 47 C0 31.49 0 15.98 0 0 Z " fill="#000000" transform="translate(447,20)"/>
<path d="M0 0 C11.88 0 23.76 0 36 0 C36 2.64 36 5.28 36 8 C27.75 8 19.5 8 11 8 C11 11.3 11 14.6 11 18 C18.59 18 26.18 18 34 18 C34 20.97 34 23.94 34 27 C26.41 27 18.82 27 11 27 C11 30.63 11 34.26 11 38 C19.58 38 28.16 38 37 38 C37 40.97 37 43.94 37 47 C24.79 47 12.58 47 0 47 C0 31.49 0 15.98 0 0 Z " fill="#000000" transform="translate(135,20)"/>
<path d="M0 0 C3.63 0 7.26 0 11 0 C11.33 4.62 11.66 9.24 12 14 C13.32 13.34 14.64 12.68 16 12 C20.30281034 11.40730519 23.95745422 11.53418167 27.9375 13.3125 C30 15 30 15 32 18 C32.22705078 21.00268555 32.22705078 21.00268555 32.1953125 24.63671875 C32.18886719 25.93544922 32.18242188 27.23417969 32.17578125 28.57226562 C32.1590706 29.94401307 32.14214071 31.31575786 32.125 32.6875 C32.11496674 34.07095718 32.10584149 35.45442127 32.09765625 36.83789062 C32.07404967 40.22543452 32.04112037 43.61263072 32 47 C28.7 47 25.4 47 22 47 C21.67 38.09 21.34 29.18 21 20 C14.36666667 20.23333333 14.36666667 20.23333333 12 23 C11.62864085 25.52037964 11.62864085 25.52037964 11.5859375 28.4453125 C11.52792969 30.05986328 11.52792969 30.05986328 11.46875 31.70703125 C11.4378125 32.83496094 11.406875 33.96289062 11.375 35.125 C11.31699219 36.82849609 11.31699219 36.82849609 11.2578125 38.56640625 C11.16332767 41.37732987 11.08056679 44.18864304 11 47 C7.37 47 3.74 47 0 47 C0 31.49 0 15.98 0 0 Z " fill="#000000" transform="translate(641,20)"/>
<path d="M0 0 C3.66864538 2.68437467 6.50666083 5.76332166 8.5625 9.875 C9.26232501 16.93323514 9.58184538 23.42584168 5.171875 29.28515625 C1.12150711 33.28636919 -3.2753727 35.06260677 -8.9375 35.375 C-14.95706637 35.07350186 -19.482499 32.72710621 -23.8125 28.625 C-27.48212365 22.41486766 -27.97492023 17.18448525 -26.3359375 10.27734375 C-24.6310892 5.71872763 -21.69486694 2.31720666 -17.609375 -0.29296875 C-12.13593554 -2.38980797 -5.46621441 -1.7889429 0 0 Z M-16.4375 11.875 C-17.48665814 16.99489172 -17.22960361 20.65083987 -14.375 25.0625 C-11.49844973 27.18238236 -11.49844973 27.18238236 -7.8125 26.9375 C-4.05882096 25.75578623 -3.37435689 25.1642185 -1.4375 21.875 C-0.77327878 18.47086623 -0.84725602 15.28958901 -1.4375 11.875 C-3.72185194 8.61164009 -5.0710739 7.21660652 -8.9375 6.25 C-12.8039261 7.21660652 -14.15314806 8.61164009 -16.4375 11.875 Z " fill="#000000" transform="translate(245.4375,33.125)"/>
<path d="M0 0 C3.5 1.8125 3.5 1.8125 6 4 C6.86625 4.6496875 6.86625 4.6496875 7.75 5.3125 C11.26709983 10.06058478 11 15.29340192 11 21 C3.74 21 -3.52 21 -11 21 C-9.54711014 25.5841963 -9.54711014 25.5841963 -8 27 C-5.04195427 27.33340471 -5.04195427 27.33340471 -2 27 C-1.34 26.01 -0.68 25.02 0 24 C3.71640139 23.72971626 6.457201 23.819067 10 25 C9.77581061 28.92331434 9.04047908 29.96128088 6.125 32.75 C0.90968278 36.5050284 -3.76867787 36.53466883 -10 36 C-14.72570165 34.33725312 -17.31398165 32.22088598 -20 28 C-22.52762722 21.98183994 -22.30282718 16.29541309 -21 10 C-16.53804595 0.91083434 -9.60149246 -1.44308146 0 0 Z M-10 9 C-10.81584568 12.05908413 -10.81584568 12.05908413 -11 15 C-7.04 15 -3.08 15 1 15 C0.53389132 10.1469717 0.53389132 10.1469717 -1.9375 8.1875 C-5.14393286 6.34137199 -7.04425467 6.90237428 -10 9 Z " fill="#000000" transform="translate(343,32)"/>
<path d="M0 0 C1.19367187 -0.01675781 2.38734375 -0.03351562 3.6171875 -0.05078125 C7.47172998 0.34840856 9.84795435 1.27270628 13.125 3.3125 C15.125 6.3125 15.125 6.3125 15.125 10.3125 C10.67 10.8075 10.67 10.8075 6.125 11.3125 C5.795 10.3225 5.465 9.3325 5.125 8.3125 C1.825 8.3125 -1.475 8.3125 -4.875 8.3125 C-4.875 9.3025 -4.875 10.2925 -4.875 11.3125 C-3.77800781 11.55484375 -2.68101562 11.7971875 -1.55078125 12.046875 C-0.09619109 12.3847153 1.35822719 12.72329625 2.8125 13.0625 C3.53373047 13.21976563 4.25496094 13.37703125 4.99804688 13.5390625 C9.56579991 14.62364313 12.73401104 15.87612496 16.125 19.3125 C17.33409073 23.39318121 17.40148222 25.55581183 15.9375 29.5625 C13.44255758 33.34792989 11.39905026 34.88781658 7.125 36.3125 C-0.32672471 36.98591512 -6.69196809 36.85292193 -12.875 32.3125 C-15.42290426 29.68497373 -15.875 29.00534426 -15.875 25.3125 C-12.575 24.6525 -9.275 23.9925 -5.875 23.3125 C-5.215 24.6325 -4.555 25.9525 -3.875 27.3125 C-0.4631679 28.05689973 2.63894686 28.3125 6.125 28.3125 C6.23927842 26.34997687 6.23927842 26.34997687 5.125 24.3125 C1.80492328 23.0557478 -1.44652381 22.18055592 -4.88476562 21.33398438 C-9.68330977 20.03007988 -12.21674895 18.78847542 -14.875 14.3125 C-15.47353879 10.12272845 -15.37255673 8.11214475 -13.125 4.5 C-8.95457301 0.4454182 -5.78698788 0.0186677 0 0 Z " fill="#000000" transform="translate(617.875,31.6875)"/>
<path d="M0 0 C1.18464844 -0.00773437 2.36929687 -0.01546875 3.58984375 -0.0234375 C7.408441 0.41469177 9.81525115 1.34132152 13.0625 3.375 C14.9375 6.5625 14.9375 6.5625 16.0625 9.375 C12.44276598 10.69126692 9.96682869 11.375 6.0625 11.375 C5.65 10.88 5.2375 10.385 4.8125 9.875 C1.90467054 7.38257475 -1.21565331 8.19195836 -4.9375 8.375 C-4.9375 9.365 -4.9375 10.355 -4.9375 11.375 C-3.84050781 11.61734375 -2.74351562 11.8596875 -1.61328125 12.109375 C-0.15869109 12.4472153 1.29572719 12.78579625 2.75 13.125 C3.47123047 13.28226563 4.19246094 13.43953125 4.93554688 13.6015625 C9.52481188 14.69125099 12.59084243 16.00291196 16.0625 19.375 C17.49554064 22.24108129 17.36894155 24.18800783 17.0625 27.375 C15.29831495 30.83551683 13.66807444 32.92081917 10.5625 35.25 C4.30341664 37.26184822 -2.1210749 37.29673912 -8.375 35.25 C-11.57668461 32.90730395 -13.60941987 30.59322841 -15.9375 27.375 C-15.9375 26.715 -15.9375 26.055 -15.9375 25.375 C-12.6375 24.715 -9.3375 24.055 -5.9375 23.375 C-5.6075 24.695 -5.2775 26.015 -4.9375 27.375 C-3.679375 27.560625 -2.42125 27.74625 -1.125 27.9375 C-0.41730469 28.04191406 0.29039062 28.14632812 1.01953125 28.25390625 C3.2650342 28.51404799 3.2650342 28.51404799 6.0625 27.375 C6.3925 26.385 6.7225 25.395 7.0625 24.375 C5.96550781 24.14425781 4.86851562 23.91351563 3.73828125 23.67578125 C2.28363727 23.34731325 0.82922174 23.01783235 -0.625 22.6875 C-1.34623047 22.53861328 -2.06746094 22.38972656 -2.81054688 22.23632812 C-7.8268743 21.06814229 -10.60551912 19.51608523 -13.9375 15.375 C-15.21247059 11.6297739 -15.13224412 9.92677501 -13.8125 6.1875 C-10.20552715 0.77704073 -6.30195398 -0.04105507 0 0 Z " fill="#000000" transform="translate(371.9375,31.625)"/>
<path d="M0 0 C2.63066279 1.71878716 4.07281555 3.59555145 5.81640625 6.2109375 C5.81640625 7.2009375 5.81640625 8.1909375 5.81640625 9.2109375 C4.38230257 9.46047755 2.94380553 9.68486392 1.50390625 9.8984375 C0.30314453 10.08986328 0.30314453 10.08986328 -0.921875 10.28515625 C-3.83042488 10.18971161 -4.21121661 9.22440584 -6.18359375 7.2109375 C-8.46689476 6.84947293 -8.46689476 6.84947293 -10.87109375 7.0234375 C-11.67933594 7.05050781 -12.48757813 7.07757813 -13.3203125 7.10546875 C-14.24263672 7.15767578 -14.24263672 7.15767578 -15.18359375 7.2109375 C-12.57381648 10.46853183 -9.75537565 11.127153 -5.80859375 12.2109375 C-1.48740862 13.40298857 2.12229239 14.63177437 5.81640625 17.2109375 C7.43375277 20.44563055 7.39483975 23.71433948 6.81640625 27.2109375 C4.54227654 31.53272757 1.40016434 33.73686552 -3.18359375 35.2109375 C-9.78929075 35.96114203 -15.42848193 35.61702408 -21.18359375 32.2109375 C-23.68359375 29.7734375 -23.68359375 29.7734375 -25.18359375 27.2109375 C-24.93359375 24.8984375 -24.93359375 24.8984375 -24.18359375 23.2109375 C-18.96066529 22.06012275 -18.96066529 22.06012275 -16.18359375 22.2109375 C-14.49647952 23.8569026 -12.82903155 25.52330899 -11.18359375 27.2109375 C-7.43999034 27.15364752 -7.43999034 27.15364752 -4.18359375 26.2109375 C-4.18359375 25.2209375 -4.18359375 24.2309375 -4.18359375 23.2109375 C-5.12460937 22.98019531 -6.065625 22.74945313 -7.03515625 22.51171875 C-20.49295603 18.9870569 -20.49295603 18.9870569 -24.18359375 14.2109375 C-24.88156319 10.21347617 -25.15753373 7.9227108 -23.15234375 4.3984375 C-17.93252375 -2.22182201 -7.70561063 -2.78449615 0 0 Z " fill="#000000" transform="translate(416.18359375,32.7890625)"/>
<path d="M0 0 C2.97 0 5.94 0 9 0 C9.33 0.99 9.66 1.98 10 3 C10.61875 2.505 11.2375 2.01 11.875 1.5 C16.28853007 -0.61849444 20.18720361 -0.8303227 25 0 C28.05260888 1.54469365 30.44613189 3.46415113 31.64624023 6.79199219 C32.09319161 9.58165973 32.11150789 12.25239013 32.09765625 15.078125 C32.09443359 16.23828125 32.09121094 17.3984375 32.08789062 18.59375 C32.07532227 20.40359375 32.07532227 20.40359375 32.0625 22.25 C32.05798828 23.47203125 32.05347656 24.6940625 32.04882812 25.953125 C32.03704815 28.96879946 32.02059853 31.98437498 32 35 C28.7 35 25.4 35 22 35 C21.97494385 34.28344238 21.9498877 33.56688477 21.92407227 32.82861328 C21.80830249 29.59388486 21.68549031 26.35946159 21.5625 23.125 C21.52318359 21.99707031 21.48386719 20.86914062 21.44335938 19.70703125 C21.40146484 18.63066406 21.35957031 17.55429687 21.31640625 16.4453125 C21.27974854 15.45031738 21.24309082 14.45532227 21.20532227 13.43017578 C21.15040468 10.99220499 21.15040468 10.99220499 20 9 C17.49259191 7.96245183 16.38022998 7.85877172 13.8125 8.8125 C11.84977807 9.88121987 11.84977807 9.88121987 11 12 C10.84733388 13.73868744 10.75067404 15.48247501 10.68359375 17.2265625 C10.64169922 18.2578125 10.59980469 19.2890625 10.55664062 20.3515625 C10.49766602 21.97191406 10.49766602 21.97191406 10.4375 23.625 C10.39431641 24.71296875 10.35113281 25.8009375 10.30664062 26.921875 C10.20035573 29.6144257 10.09965496 32.30719576 10 35 C6.7 35 3.4 35 0 35 C0 23.45 0 11.9 0 0 Z " fill="#000000" transform="translate(490,32)"/>
<path d="M0 0 C0.96164063 0.00644531 1.92328125 0.01289063 2.9140625 0.01953125 C5.375 0.1875 5.375 0.1875 7.375 1.1875 C7.045 3.4975 6.715 5.8075 6.375 8.1875 C4.065 8.5175 1.755 8.8475 -0.625 9.1875 C-0.955 10.5075 -1.285 11.8275 -1.625 13.1875 C-0.655625 13.166875 0.31375 13.14625 1.3125 13.125 C4.375 13.1875 4.375 13.1875 5.375 14.1875 C5.41592937 16.52047433 5.41741723 18.85455225 5.375 21.1875 C3.065 21.1875 0.755 21.1875 -1.625 21.1875 C-1.625 30.0975 -1.625 39.0075 -1.625 48.1875 C-4.925 48.1875 -8.225 48.1875 -11.625 48.1875 C-11.625 39.2775 -11.625 30.3675 -11.625 21.1875 C-13.275 21.1875 -14.925 21.1875 -16.625 21.1875 C-16.625 18.5475 -16.625 15.9075 -16.625 13.1875 C-14.975 13.1875 -13.325 13.1875 -11.625 13.1875 C-11.686875 11.57875 -11.686875 11.57875 -11.75 9.9375 C-11.57962478 4.82624346 -11.57962478 4.82624346 -9.625 2.1875 C-6.3778884 0.13050622 -3.80266281 -0.05637371 0 0 Z " fill="#000000" transform="translate(188.625,18.8125)"/>
<path d="M0 0 C0.9796875 -0.01417969 1.959375 -0.02835938 2.96875 -0.04296875 C5.5 0.1875 5.5 0.1875 7.5 2.1875 C6.84 4.1675 6.18 6.1475 5.5 8.1875 C3.19 8.1875 0.88 8.1875 -1.5 8.1875 C-1.5 9.8375 -1.5 11.4875 -1.5 13.1875 C0.48 13.1875 2.46 13.1875 4.5 13.1875 C4.5 15.8275 4.5 18.4675 4.5 21.1875 C2.52 21.1875 0.54 21.1875 -1.5 21.1875 C-1.5 30.0975 -1.5 39.0075 -1.5 48.1875 C-4.8 48.1875 -8.1 48.1875 -11.5 48.1875 C-11.5 39.2775 -11.5 30.3675 -11.5 21.1875 C-13.15 21.1875 -14.8 21.1875 -16.5 21.1875 C-16.5 18.5475 -16.5 15.9075 -16.5 13.1875 C-14.85 13.1875 -13.2 13.1875 -11.5 13.1875 C-11.5825 11.95 -11.665 10.7125 -11.75 9.4375 C-11.76153532 6.17877351 -11.69423516 5.44000571 -9.625 2.75 C-6.21818668 0.24499021 -4.20144833 0.02764111 0 0 Z " fill="#000000" transform="translate(211.5,18.8125)"/>
<path d="M0 0 C0 3.63 0 7.26 0 11 C1.98 11 3.96 11 6 11 C6 13.97 6 16.94 6 20 C4.02 20 2.04 20 0 20 C0.33 26.27 0.66 32.54 1 39 C3.475 38.505 3.475 38.505 6 38 C7 39 7 39 7.0625 42.5625 C7.041875 43.696875 7.02125 44.83125 7 46 C4.67404054 47.16297973 3.21276769 47.16600691 0.625 47.1875 C-0.14585937 47.20167969 -0.91671875 47.21585938 -1.7109375 47.23046875 C-4.43479987 46.95622322 -5.8209258 46.69225975 -8 45 C-10.23387843 39.54174987 -10.24721254 34.39579867 -10.125 28.5625 C-10.11597656 27.73556641 -10.10695313 26.90863281 -10.09765625 26.05664062 C-10.07431512 24.03763292 -10.03845288 22.01877644 -10 20 C-11.32 19.67 -12.64 19.34 -14 19 C-14 16.36 -14 13.72 -14 11 C-12.68 11 -11.36 11 -10 11 C-10.165 10.113125 -10.33 9.22625 -10.5 8.3125 C-10 5 -10 5 -8.2890625 3.48828125 C-2.75179083 0 -2.75179083 0 0 0 Z " fill="#000000" transform="translate(296,21)"/>
<path d="M0 0 C0.99 0.66 1.98 1.32 3 2 C3.33 1.67 3.66 1.34 4 1 C5.66617115 0.95936168 7.33388095 0.957279 9 1 C8.2732742 5.37919584 7.51455817 9.75226383 6.75 14.125 C6.54503906 15.3625 6.34007812 16.6 6.12890625 17.875 C4.08859651 29.3749276 4.08859651 29.3749276 0 34 C-3.89406307 36.55895573 -7.47646294 35.99931829 -11.9140625 35.484375 C-14 35 -14 35 -17 33 C-16.34 31.35 -15.68 29.7 -15 28 C-14.30132812 28.0721875 -13.60265625 28.144375 -12.8828125 28.21875 C-11.51769531 28.35796875 -11.51769531 28.35796875 -10.125 28.5 C-8.76761719 28.63921875 -8.76761719 28.63921875 -7.3828125 28.78125 C-5.06686789 29.03047295 -5.06686789 29.03047295 -3 29 C-2.67 27.35 -2.34 25.7 -2 24 C-2.66 24.33 -3.32 24.66 -4 25 C-7.375 25.375 -7.375 25.375 -11 25 C-14.37244608 22.23286475 -14.93281251 20.51230461 -15.5 16.1875 C-15.23664664 11.54370244 -13.70672385 7.76442825 -11 4 C-7.39597853 0.93274769 -4.78388298 -0.77576481 0 0 Z M-6.25 7.4375 C-8.70120887 11.02677013 -8.78719726 13.67301092 -9 18 C-8.67 18.33 -8.34 18.66 -8 19 C-5.66055264 18.71269945 -3.3260857 18.38063221 -1 18 C0.80230168 14.17010894 1.19622241 11.21878192 1 7 C-2.15090654 5.94969782 -3.38607609 5.60777084 -6.25 7.4375 Z " fill="#000000" transform="translate(297,91)"/>
<path d="M0 0 C0.99 0.66 1.98 1.32 3 2 C3.33 1.67 3.66 1.34 4 1 C5.66617115 0.95936168 7.33388095 0.957279 9 1 C8.27150667 5.19153475 7.51339985 9.37719382 6.75 13.5625 C6.54503906 14.74392578 6.34007812 15.92535156 6.12890625 17.14257812 C4.94894938 23.5250721 3.7949778 28.68099533 0 34 C-3.82863246 36.62534797 -7.49949554 35.99664557 -11.9140625 35.484375 C-14 35 -14 35 -17 33 C-16.34 31.35 -15.68 29.7 -15 28 C-14.01 28.33 -13.02 28.66 -12 29 C-10.43881572 29.06740865 -8.8749748 29.08514456 -7.3125 29.0625 C-6.50425781 29.05347656 -5.69601562 29.04445313 -4.86328125 29.03515625 C-4.24839844 29.02355469 -3.63351562 29.01195313 -3 29 C-2.67 27.35 -2.34 25.7 -2 24 C-2.90492188 24.19529297 -2.90492188 24.19529297 -3.828125 24.39453125 C-6.28025075 24.81772069 -8.51138195 25.08566671 -11 25 C-13.5625 23.0625 -13.5625 23.0625 -15 20 C-15.81658232 13.77355981 -14.68691323 9.12764547 -11 4 C-7.39597853 0.93274769 -4.78388298 -0.77576481 0 0 Z M-6.25 7.4375 C-8.70120887 11.02677013 -8.78719726 13.67301092 -9 18 C-8.67 18.33 -8.34 18.66 -8 19 C-5.66055264 18.71269945 -3.3260857 18.38063221 -1 18 C0.80230168 14.17010894 1.19622241 11.21878192 1 7 C-2.15090654 5.94969782 -3.38607609 5.60777084 -6.25 7.4375 Z " fill="#000000" transform="translate(382,91)"/>
<path d="M0 0 C3.3 0 6.6 0 10 0 C10 15.51 10 31.02 10 47 C6.7 47 3.4 47 0 47 C0 31.49 0 15.98 0 0 Z " fill="#000000" transform="translate(569,20)"/>
<path d="M0 0 C3.3 0 6.6 0 10 0 C10 15.51 10 31.02 10 47 C6.7 47 3.4 47 0 47 C0 31.49 0 15.98 0 0 Z " fill="#000000" transform="translate(308,20)"/>
<path d="M0 0 C2.97 0 5.94 0 9 0 C9.33 0.99 9.66 1.98 10 3 C10.33 2.505 10.66 2.01 11 1.5 C14.21668314 -0.91251235 17.04405111 -0.25117136 21 0 C21.66 0.33 22.32 0.66 23 1 C22.01 3.97 21.02 6.94 20 10 C17.69 10 15.38 10 13 10 C11.22034298 13.08473884 10.71563429 15.43932952 10.5859375 18.984375 C10.52792969 20.38623047 10.52792969 20.38623047 10.46875 21.81640625 C10.42234375 23.26853516 10.42234375 23.26853516 10.375 24.75 C10.31699219 26.22533203 10.31699219 26.22533203 10.2578125 27.73046875 C10.1637203 30.15334289 10.08077848 32.57664545 10 35 C6.7 35 3.4 35 0 35 C0 23.45 0 11.9 0 0 Z " fill="#000000" transform="translate(257,32)"/>
<path d="M0 0 C2.83547952 2.01634099 4.55469538 3.61491141 5.63671875 6.98046875 C6.7576042 13.79014918 5.4014142 20.39460702 1.56640625 26.15234375 C-0.87800485 29.13318422 -2.27900584 30.75966861 -6 32 C-12.16704805 32.44851259 -12.16704805 32.44851259 -15.4375 30.6875 C-17 29 -17 29 -17 26 C-15.25 24.875 -15.25 24.875 -13 24 C-12.0409375 24.5259375 -12.0409375 24.5259375 -11.0625 25.0625 C-10.381875 25.371875 -9.70125 25.68125 -9 26 C-5.96684109 24.70007475 -4.39330149 23.65550249 -2.6875 20.8125 C-2.460625 20.214375 -2.23375 19.61625 -2 19 C-3.051875 19.226875 -4.10375 19.45375 -5.1875 19.6875 C-9.40867437 20.0334979 -10.7460799 19.58399538 -14 17 C-15.5547669 13.89046621 -15.28644437 11.43733239 -15 8 C-11.59885026 1.44963754 -7.51640384 -2.50546795 0 0 Z M-6 5 C-7.66846734 6.69495956 -7.66846734 6.69495956 -9 9 C-8.77802187 11.6984589 -8.77802187 11.6984589 -8 14 C-6.15274948 14.69159401 -6.15274948 14.69159401 -4 15 C-3.01 14.34 -2.02 13.68 -1 13 C-0.74984127 9.41642759 -0.74984127 9.41642759 -1 6 C-2.65 5.67 -4.3 5.34 -6 5 Z " fill="#000000" transform="translate(644,85)"/>
<path d="M0 0 C3.28542442 2.71404626 4.69375593 4.30101116 5.44921875 8.4921875 C5.72617799 15.23471234 4.38609564 21.14238118 1 27 C-2.32444666 30.24529317 -4.69689521 31.8524787 -9.3125 32.375 C-13.88359915 31.91014246 -15.13816813 30.46888711 -18 27 C-16.35 26.01 -14.7 25.02 -13 24 C-13 24.66 -13 25.32 -13 26 C-9.59919423 25.89592083 -9.59919423 25.89592083 -6 25 C-4.00916823 22.5748212 -4.00916823 22.5748212 -3 20 C-4.051875 20.0825 -5.10375 20.165 -6.1875 20.25 C-10 20 -10 20 -12.9375 18.5625 C-15.56706713 15.29546205 -15.60715967 13.27987478 -15.3515625 9.18359375 C-14.85710651 6.11247267 -14.06401257 4.33921424 -12 2 C-7.74447757 -0.83701495 -4.88317919 -1.7662563 0 0 Z M-7 5 C-9.29013653 8.4352048 -9.17842973 9.985331 -9 14 C-6.64632287 14.6878236 -6.64632287 14.6878236 -4 15 C-3.01 14.34 -2.02 13.68 -1 13 C-0.58333333 10 -0.58333333 10 -1 7 C-1.66 6.34 -2.32 5.68 -3 5 C-4.32 5 -5.64 5 -7 5 Z " fill="#000000" transform="translate(621,85)"/>
<path d="M0 0 C2.5 2 2.5 2 4 4 C3.01 5.485 3.01 5.485 2 7 C0.14375 6.6596875 0.14375 6.6596875 -1.75 6.3125 C-4.7257641 5.93855442 -5.69974659 5.84602389 -8.4375 7.25 C-10.22737394 9.02220209 -10.22737394 9.02220209 -11 12 C-9.906875 11.979375 -8.81375 11.95875 -7.6875 11.9375 C-4 12 -4 12 -1 13 C1.68121076 17.02181615 1.81344335 20.27236391 1 25 C-0.71077974 28.0717718 -2.80971307 30.40485654 -6 32 C-10.18144011 32.39447548 -12.30946048 32.45035186 -15.875 30.125 C-19.1039943 26.8960057 -19.20389207 24.91328993 -19.3125 20.4375 C-19.25579527 14.53312033 -18.26696517 9.95822367 -15 5 C-10.37079794 0.59123613 -6.42970423 -0.97843325 0 0 Z M-13 19 C-13.33333333 22 -13.33333333 22 -13 25 C-12.34 25.66 -11.68 26.32 -11 27 C-8.06546739 26.63318342 -7.13562754 26.13562754 -5 24 C-4.74994614 20.95817107 -4.74994614 20.95817107 -5 18 C-6.05310277 16.72996677 -6.05310277 16.72996677 -8.4375 16.8125 C-11.16734675 16.73160017 -11.16734675 16.73160017 -13 19 Z " fill="#000000" transform="translate(671,85)"/>
<path d="M0 0 C1.98 0 3.96 0 6 0 C5.67 3.63 5.34 7.26 5 11 C6.32 10.34 7.64 9.68 9 9 C12.125 9.1875 12.125 9.1875 15 10 C18.76699478 15.65049218 16.2019815 23.30141359 14.9375 29.6875 C14.63094808 31.12628018 14.32076956 32.56432267 14 34 C12.02 34 10.04 34 8 34 C8.57914667 27.98673249 9.22337945 21.99107278 10 16 C7.56282742 16.27034634 7.56282742 16.27034634 5 17 C2.70053583 20.44919626 2.19230965 23.1381022 1.375 27.1875 C0.98441406 29.09595703 0.98441406 29.09595703 0.5859375 31.04296875 C0.39257812 32.01878906 0.19921875 32.99460938 0 34 C-1.98 34 -3.96 34 -6 34 C-5.43223344 26.3055241 -4.07139916 18.90832778 -2.4375 11.375 C-2.20353516 10.27542969 -1.96957031 9.17585938 -1.72851562 8.04296875 C-1.15712206 5.36091733 -0.58087187 2.6800116 0 0 Z " fill="#000000" transform="translate(225,82)"/>
<path d="M0 0 C5.94 0 11.88 0 18 0 C19 2 19 2 18 6 C13.71 6 9.42 6 5 6 C4.67 8.31 4.34 10.62 4 13 C7.3 13 10.6 13 14 13 C13.67 14.65 13.34 16.3 13 18 C8.05 18.495 8.05 18.495 3 19 C2.34 21.64 1.68 24.28 1 27 C5.29 27 9.58 27 14 27 C13.67 28.65 13.34 30.3 13 32 C6.73 32 0.46 32 -6 32 C-4.875 21.875 -4.875 21.875 -3.80859375 17.08984375 C-3.58623047 16.08115234 -3.36386719 15.07246094 -3.13476562 14.03320312 C-2.90466797 13.01162109 -2.67457031 11.99003906 -2.4375 10.9375 C-2.20353516 9.88111328 -1.96957031 8.82472656 -1.72851562 7.73632812 C-1.15654355 5.15661732 -0.57886089 2.57817377 0 0 Z " fill="#000000" transform="translate(323,84)"/>
<path d="M0 0 C1.98 0 3.96 0 6 0 C5.34 3.63 4.68 7.26 4 11 C5.32 10.34 6.64 9.68 8 9 C10.5625 8.6875 10.5625 8.6875 13 9 C14.62890625 10.27734375 14.62890625 10.27734375 16 12 C16.74210212 19.66838855 14.9210299 26.60174793 13 34 C11.02 34 9.04 34 7 34 C7.144375 33.11957031 7.28875 32.23914063 7.4375 31.33203125 C7.623125 30.17058594 7.80875 29.00914063 8 27.8125 C8.185625 26.66394531 8.37125 25.51539062 8.5625 24.33203125 C8.93489477 21.49584607 9.08596021 18.85280436 9 16 C6.54775306 16.10613836 6.54775306 16.10613836 4 17 C2.22039939 20.61154242 1.31804413 24.41172657 0.375 28.3125 C0.11460937 29.38113281 -0.14578125 30.44976562 -0.4140625 31.55078125 C-0.70410156 32.76314453 -0.70410156 32.76314453 -1 34 C-2.98 34 -4.96 34 -7 34 C-5.9360676 26.20249547 -4.55212349 18.51261898 -2.9375 10.8125 C-2.7631543 9.97485107 -2.58880859 9.13720215 -2.40917969 8.27416992 C-1.12691647 2.25383294 -1.12691647 2.25383294 0 0 Z " fill="#000000" transform="translate(443,82)"/>
<path d="M0 0 C0.99 0 1.98 0 3 0 C4.32 0 5.64 0 7 0 C6.52087184 8.24430867 5.02214499 16.00044527 3 24 C0.66666667 24 -1.66666667 24 -4 24 C-4.66 24.33 -5.32 24.66 -6 25 C-9.20371381 25.27858381 -11.37084049 25.28907329 -14.3125 23.9375 C-16.88136018 20.98806794 -16.93728204 18.88851333 -17 15 C-15.69307882 8.74391829 -13.40561312 3.49744962 -8.125 -0.375 C-5.18868702 -1.23862146 -2.96201517 -0.63021599 0 0 Z M-7.25 6.8125 C-9.65235453 9.81544316 -10.1232768 11.35683861 -10.0625 15.125 C-10.041875 16.40375 -10.02125 17.6825 -10 19 C-5.93175942 19.39698415 -5.93175942 19.39698415 -2.34375 17.8125 C-0.59020731 15.44725638 -0.50197736 13.73045139 -0.3125 10.8125 C-0.24675781 9.91144531 -0.18101562 9.01039062 -0.11328125 8.08203125 C-0.07589844 7.39496094 -0.03851563 6.70789063 0 6 C-3.88215213 4.69332321 -3.88215213 4.69332321 -7.25 6.8125 Z " fill="#000000" transform="translate(189,92)"/>
<path d="M0 0 C3.3 0 6.6 0 10 0 C10 11.55 10 23.1 10 35 C6.7 35 3.4 35 0 35 C0 23.45 0 11.9 0 0 Z " fill="#000000" transform="translate(587,32)"/>
<path d="M0 0 C2.07761803 1.57184944 2.89885462 2.47741556 3.3984375 5.05859375 C3.32978969 12.02634636 1.92859212 18.31880588 0 25 C-1.98 25 -3.96 25 -6 25 C-5.855625 24.20335938 -5.71125 23.40671875 -5.5625 22.5859375 C-5.376875 21.52632812 -5.19125 20.46671875 -5 19.375 C-4.814375 18.33085938 -4.62875 17.28671875 -4.4375 16.2109375 C-4.01284203 13.09425135 -3.92454794 10.14069188 -4 7 C-6.16874252 7.50603992 -7.99967627 7.99983813 -10 9 C-10.6127635 11.50969167 -11.12207123 13.95996108 -11.5625 16.5 C-12.88337989 23.88337989 -12.88337989 23.88337989 -14 25 C-15.99958364 25.04080783 -18.00045254 25.04254356 -20 25 C-19.35916562 21.37409764 -18.71148784 17.74945113 -18.0625 14.125 C-17.88009766 13.09246094 -17.69769531 12.05992188 -17.50976562 10.99609375 C-17.33251953 10.00996094 -17.15527344 9.02382812 -16.97265625 8.0078125 C-16.72914429 6.64100342 -16.72914429 6.64100342 -16.48071289 5.24658203 C-16 3 -16 3 -15 1 C-12.33333333 1 -9.66666667 1 -7 1 C-4.45132831 -0.27433584 -2.82594567 -0.27570202 0 0 Z " fill="#000000" transform="translate(522,91)"/>
<path d="M0 0 C3.04207493 4.5631124 2.26758156 8.47255527 1.34375 13.74609375 C1.0653125 14.96425781 0.786875 16.18242188 0.5 17.4375 C0.2215625 18.67371094 -0.056875 19.90992188 -0.34375 21.18359375 C-0.5603125 22.11300781 -0.776875 23.04242188 -1 24 C-2.98 24 -4.96 24 -7 24 C-6.33333333 18 -5.66666667 12 -5 6 C-6.65 6.33 -8.3 6.66 -10 7 C-11.95088223 12.61854082 -13.63172347 18.21113776 -15 24 C-16.98 24 -18.96 24 -21 24 C-20.32545897 16.1753241 -18.73123042 8.65443386 -17 1 C-15.35 0.67 -13.7 0.34 -12 0 C-11.67 0.66 -11.34 1.32 -11 2 C-10.29875 1.484375 -9.5975 0.96875 -8.875 0.4375 C-5.34522437 -1.32738782 -3.72617026 -1.15925297 0 0 Z " fill="#000000" transform="translate(362,92)"/>
<path d="M0 0 C1.9375 1.5 1.9375 1.5 3 4 C3.28061311 7.02320919 3.31866801 9.97878217 3 13 C2 14 2 14 -1.16015625 14.09765625 C-3.09181641 14.08025391 -3.09181641 14.08025391 -5.0625 14.0625 C-6.35285156 14.05347656 -7.64320313 14.04445313 -8.97265625 14.03515625 C-9.97167969 14.02355469 -10.97070312 14.01195313 -12 14 C-11.67 15.65 -11.34 17.3 -11 19 C-7.65747276 19.07427838 -5.1964086 19.06546953 -2 18 C-1.34 18.66 -0.68 19.32 0 20 C-0.1875 22.0625 -0.1875 22.0625 -1 24 C-4.71277738 25.23759246 -8.14187846 25.55653215 -12 25 C-15.44312714 22.8755173 -16.71617547 21.85147359 -18 18 C-18.39783285 12.72871477 -17.82650536 9.4834223 -15 5 C-10.13144201 -0.47712774 -7.23712254 -1.6800463 0 0 Z M-9.8125 6.375 C-11.1966722 7.93368783 -11.1966722 7.93368783 -11 10 C-8.03 10 -5.06 10 -2 10 C-2.33 8.35 -2.66 6.7 -3 5 C-6.67271044 4.67164344 -6.67271044 4.67164344 -9.8125 6.375 Z " fill="#000000" transform="translate(167,92)"/>
<path d="M0 0 C2.66951058 1.69069004 2.94596958 2.79288341 3.75 5.875 C4 9 4 9 3 14 C-1.95 14 -6.9 14 -12 14 C-10.51813453 18.13292639 -10.51813453 18.13292639 -7.625 18.8125 C-5.10421049 18.99255639 -3.3796376 18.79321253 -1 18 C-0.34 19.65 0.32 21.3 1 23 C-2.74414873 25.49609916 -6.65995666 25.52632732 -11 25 C-13.875 24 -13.875 24 -16 22 C-18.30609647 16.42693352 -18.29318778 12.67014899 -16.12890625 7.05078125 C-12.42428519 0.3209333 -7.24805453 -1.52590622 0 0 Z M-8 5 C-9.8624438 7.40858714 -9.8624438 7.40858714 -11 10 C-8.03 10 -5.06 10 -2 10 C-2.33 8.35 -2.66 6.7 -3 5 C-5.37305578 4.58219121 -5.37305578 4.58219121 -8 5 Z " fill="#000000" transform="translate(566,92)"/>
<path d="M0 0 C3.04207493 4.5631124 2.26758156 8.47255527 1.34375 13.74609375 C1.0653125 14.96425781 0.786875 16.18242188 0.5 17.4375 C0.2215625 18.67371094 -0.056875 19.90992188 -0.34375 21.18359375 C-0.5603125 22.11300781 -0.776875 23.04242188 -1 24 C-2.98 24 -4.96 24 -7 24 C-6.33333333 18 -5.66666667 12 -5 6 C-6.65 6.33 -8.3 6.66 -10 7 C-11.95088223 12.61854082 -13.63172347 18.21113776 -15 24 C-16.98 24 -18.96 24 -21 24 C-17.71691176 1.71691176 -17.71691176 1.71691176 -16 0 C-13.5 -0.125 -13.5 -0.125 -11 0 C-10.67 0.33 -10.34 0.66 -10 1 C-9.46375 0.649375 -8.9275 0.29875 -8.375 -0.0625 C-5.19296594 -1.31856608 -3.25787048 -0.92070253 0 0 Z " fill="#000000" transform="translate(277,92)"/>
<path d="M0 0 C-1.22303752 8.79148147 -2.88379055 17.37997349 -5 26 C-3.35 26 -1.7 26 0 26 C0 27.65 0 29.3 0 31 C-6.27 31 -12.54 31 -19 31 C-18.67 29.35 -18.34 27.7 -18 26 C-16.02 25.67 -14.04 25.34 -12 25 C-10.68 19.06 -9.36 13.12 -8 7 C-9.65 7 -11.3 7 -13 7 C-12.875 5.1875 -12.875 5.1875 -12 3 C-7.83278642 0.28646558 -4.88178032 -0.1365533 0 0 Z " fill="#000000" transform="translate(599,85)"/>
<path d="M0 0 C0.99 0.66 1.98 1.32 3 2 C2.67 3.32 2.34 4.64 2 6 C-1.11227195 6 -3.94152152 5.54372951 -7 5 C-5.86778082 8.39665754 -5.4123002 8.57586197 -2.5 10.3125 C0.24564038 12.19765102 0.91212937 12.77801105 2.1875 16 C1.94610622 19.86230054 0.69943902 21.30056098 -2 24 C-5.10953379 25.5547669 -7.56266761 25.28644437 -11 25 C-14.4375 23 -14.4375 23 -17 21 C-15.68 19.68 -14.36 18.36 -13 17 C-12.01 17.66 -11.02 18.32 -10 19 C-6.87478167 19.16699232 -6.87478167 19.16699232 -4 19 C-7.37810658 15.47079436 -7.37810658 15.47079436 -11.3125 12.625 C-13 11 -13 11 -13.5 7.5625 C-12.9327973 3.52118076 -12.18229789 2.43352192 -9 0 C-5.88109857 -1.55945072 -3.34501482 -0.64552918 0 0 Z " fill="#000000" transform="translate(486,92)"/>
<path d="M0 0 C0.99 0.66 1.98 1.32 3 2 C2.34 3.32 1.68 4.64 1 6 C-2 6 -2 6 -5 5 C-5.99 5.99 -6.98 6.98 -8 8 C-7.2575 8.2475 -6.515 8.495 -5.75 8.75 C-2.63932847 10.1639416 -1.01816571 11.2343655 1 14 C1.5625 17.5 1.5625 17.5 1 21 C-1.1027189 23.56268866 -2.6545274 24.7368733 -5.9375 25.37890625 C-9.88515294 25.61068133 -11.62829387 25.24780409 -15 23 C-15.66 22.34 -16.32 21.68 -17 21 C-16.505 19.515 -16.505 19.515 -16 18 C-15.01 17.67 -14.02 17.34 -13 17 C-12.01 17.66 -11.02 18.32 -10 19 C-6.87478167 19.16699232 -6.87478167 19.16699232 -4 19 C-6.1622087 16.75770949 -8.13741436 14.90943144 -10.75 13.1875 C-13 11 -13 11 -13.5625 7.5 C-12.92519445 3.53454327 -12.1376325 2.39936603 -9 0 C-5.88109857 -1.55945072 -3.34501482 -0.64552918 0 0 Z " fill="#000000" transform="translate(432,92)"/>
<path d="M0 0 C1.5 2.0625 1.5 2.0625 2 4 C1.34 4.66 0.68 5.32 0 6 C-1.299375 5.95875 -2.59875 5.9175 -3.9375 5.875 C-7.24820619 5.74627027 -7.24820619 5.74627027 -9.9375 7.625 C-11.22895749 10.51178732 -11.86518353 12.83181287 -12 16 C-11.08333333 18.08333333 -11.08333333 18.08333333 -9 19 C-5.85078091 18.76716851 -5.85078091 18.76716851 -3 18 C-2.34 19.32 -1.68 20.64 -1 22 C-3.66044076 24.66044076 -5.11484902 25.012761 -8.9375 25.4375 C-11.86398785 25.2955435 -13.21872886 24.89296247 -15.9375 23.5625 C-18.90407594 19.87675413 -19.3915539 16.67561416 -19 12 C-17.38674497 6.63191746 -14.71237599 3.10024736 -10 0 C-6.76369066 -1.61815467 -3.41944272 -0.97077399 0 0 Z " fill="#000000" transform="translate(547,92)"/>
<path d="M0 0 C1.65 0 3.3 0 5 0 C5 1.98 5 3.96 5 6 C6.65 6 8.3 6 10 6 C9.67 7.65 9.34 9.3 9 11 C7.02 11 5.04 11 3 11 C2.67 15.62 2.34 20.24 2 25 C3.32 25.33 4.64 25.66 6 26 C6.33 27.32 6.66 28.64 7 30 C3.95016004 31.52491998 1.3576631 31.23562548 -2 31 C-3.9375 30 -3.9375 30 -5 28 C-5.51445191 22.03235788 -4.49517388 16.76709923 -3 11 C-3.99 11 -4.98 11 -6 11 C-5.67 9.35 -5.34 7.7 -5 6 C-3.68 6 -2.36 6 -1 6 C-0.67 4.02 -0.34 2.04 0 0 Z " fill="#000000" transform="translate(140,86)"/>
<path d="M0 0 C0.66 0.33 1.32 0.66 2 1 C1.67 2.65 1.34 4.3 1 6 C-0.258125 5.9175 -1.51625 5.835 -2.8125 5.75 C-6.1313917 5.75393831 -6.1313917 5.75393831 -8.9375 7.4375 C-10.52202814 11.25900904 -10.69689422 14.87776143 -11 19 C-8.03 18.67 -5.06 18.34 -2 18 C-1.34 19.32 -0.68 20.64 0 22 C-2.66044076 24.66044076 -4.11484902 25.012761 -7.9375 25.4375 C-10.86398785 25.2955435 -12.21872886 24.89296247 -14.9375 23.5625 C-17.90407594 19.87675413 -18.3915539 16.67561416 -18 12 C-16.38674497 6.63191746 -13.71237599 3.10024736 -9 0 C-5.90914327 -1.54542837 -3.32167685 -0.59315658 0 0 Z " fill="#000000" transform="translate(216,92)"/>
<path d="M0 0 C1.98 0 3.96 0 6 0 C5.19099794 4.43814516 4.37720308 8.87539813 3.5625 13.3125 C3.33240234 14.57513672 3.10230469 15.83777344 2.86523438 17.13867188 C2.64287109 18.34716797 2.42050781 19.55566406 2.19140625 20.80078125 C1.98717041 21.91622314 1.78293457 23.03166504 1.57250977 24.1809082 C1 27 1 27 0 30 C0.66 30 1.32 30 2 30 C1.505 32.475 1.505 32.475 1 35 C-1.31 34.67 -3.62 34.34 -6 34 C-6.38465895 27.18463243 -4.94593706 20.83790678 -3.5625 14.1875 C-3.33240234 13.04345703 -3.10230469 11.89941406 -2.86523438 10.72070312 C-1.14532343 2.29064685 -1.14532343 2.29064685 0 0 Z " fill="#000000" transform="translate(399,82)"/>
<path d="M0 0 C1.98 0 3.96 0 6 0 C2.71691176 22.28308824 2.71691176 22.28308824 1 24 C-0.98 24 -2.96 24 -5 24 C-3.35 16.08 -1.7 8.16 0 0 Z " fill="#000000" transform="translate(495,92)"/>
<path d="M0 0 C1.98 0 3.96 0 6 0 C5.28621973 8.13709505 3.67226118 16.01731928 2 24 C0.02 24 -1.96 24 -4 24 C-3.4533512 15.81911794 -1.82876132 7.98214061 0 0 Z " fill="#000000" transform="translate(409,92)"/>
<path d="M0 0 C1.98 0 3.96 0 6 0 C4.35 7.92 2.7 15.84 1 24 C-0.98 24 -2.96 24 -5 24 C-1.71691176 1.71691176 -1.71691176 1.71691176 0 0 Z " fill="#000000" transform="translate(249,92)"/>
<path d="M0 0 C3.3 0 6.6 0 10 0 C10 2.97 10 5.94 10 9 C6.7 9 3.4 9 0 9 C0 6.03 0 3.06 0 0 Z " fill="#000000" transform="translate(587,20)"/>
<path d="M0 0 C2.625 0.375 2.625 0.375 5 1 C5.042721 2.66611905 5.04063832 4.33382885 5 6 C4 7 4 7 1.4375 7.0625 C0.2309375 7.0315625 0.2309375 7.0315625 -1 7 C-1.625 4.625 -1.625 4.625 -2 2 C-1.34 1.34 -0.68 0.68 0 0 Z " fill="#000000" transform="translate(412,82)"/>
<path d="M0 0 C1.65 0.33 3.3 0.66 5 1 C5.625 2.875 5.625 2.875 6 5 C5.34 5.66 4.68 6.32 4 7 C1.375 6.625 1.375 6.625 -1 6 C-1.33 5.01 -1.66 4.02 -2 3 C-1.34 2.01 -0.68 1.02 0 0 Z " fill="#000000" transform="translate(251,82)"/>
<path d="M0 0 C1.65 0 3.3 0 5 0 C5.625 2.375 5.625 2.375 6 5 C5.34 5.66 4.68 6.32 4 7 C1.375 6.625 1.375 6.625 -1 6 C-0.67 4.02 -0.34 2.04 0 0 Z " fill="#000000" transform="translate(497,82)"/>
</svg>
